<svg xmlns="http://www.w3.org/2000/svg" width="278" height="145" fill="none" viewBox="0 0 278 145">
  <path fill="#3DA9FC" d="M231.963 100h-9.926c-8.276 0-14.983-6.707-14.983-14.983V74.865a4.92 4.92 0 0 0-4.919-4.92h-10.152c-8.276 0-14.983-6.706-14.983-14.982v-9.926c0-8.276 6.707-14.983 14.983-14.983h5.823a3.87 3.87 0 0 1 0 7.741h-5.823a7.252 7.252 0 0 0-7.249 7.248v9.927a7.251 7.251 0 0 0 7.249 7.248h10.152c6.988 0 12.66 5.666 12.66 12.66v10.153a7.251 7.251 0 0 0 7.248 7.248h9.927a7.25 7.25 0 0 0 7.248-7.248v-7.508c0-6.337-2.466-12.297-6.946-16.778l-15.99-15.996c-5.94-5.947-9.214-13.845-9.214-22.251v-7.516C207.068 6.707 213.775 0 222.05 0h9.927c8.276 0 14.983 6.707 14.983 14.982v10.153a4.919 4.919 0 0 0 4.918 4.92h10.153c8.276 0 14.983 6.706 14.983 14.982v9.926c0 8.276-6.707 14.983-14.983 14.983h-5.816a3.871 3.871 0 1 1 0-7.741h5.816a7.25 7.25 0 0 0 7.248-7.248V45.03a7.25 7.25 0 0 0-7.248-7.248h-10.166c-6.988 0-12.654-5.666-12.654-12.653V14.981c0-4-3.247-7.248-7.248-7.248h-9.926a7.246 7.246 0 0 0-7.248 7.248v7.509c0 6.337 2.466 12.297 6.946 16.777l15.99 15.99c5.946 5.94 9.214 13.845 9.214 22.251v7.508c.007 8.27-6.7 14.983-14.976 14.983Z"/>
  <path fill="#094067" d="M52.24 63V25.72L37.68 53.48h-6.16L16.96 25.72V63H5.92V6.2h11.84l16.8 32.32L51.52 6.2h11.76V63H52.24Zm40.596.8c-3.36 0-6.4-.56-9.12-1.68-2.72-1.173-5.04-2.747-6.96-4.72a22.521 22.521 0 0 1-4.48-6.88c-1.014-2.613-1.52-5.36-1.52-8.24 0-4 .88-7.653 2.64-10.96 1.813-3.307 4.373-5.947 7.68-7.92 3.36-2.027 7.306-3.04 11.84-3.04 4.586 0 8.506 1.013 11.76 3.04 3.253 1.973 5.733 4.613 7.44 7.92 1.76 3.253 2.64 6.773 2.64 10.56 0 .64-.027 1.307-.08 2-.054.64-.107 1.173-.16 1.6h-32.4c.213 2.133.826 4 1.84 5.6 1.066 1.6 2.4 2.827 4 3.68 1.653.8 3.413 1.2 5.28 1.2a12.39 12.39 0 0 0 6-1.52c1.92-1.067 3.226-2.453 3.92-4.16l9.2 2.56c-1.014 2.133-2.48 4.027-4.4 5.68-1.867 1.653-4.08 2.96-6.64 3.92-2.56.907-5.387 1.36-8.48 1.36Zm-10.96-25.12h21.92c-.214-2.133-.827-3.973-1.84-5.52-.96-1.6-2.24-2.827-3.84-3.68-1.6-.907-3.387-1.36-5.36-1.36-1.92 0-3.68.453-5.28 1.36-1.547.853-2.827 2.08-3.84 3.68-.96 1.547-1.547 3.387-1.76 5.52Zm36.85 3.36c0-4.053.8-7.707 2.4-10.96 1.6-3.307 3.814-5.92 6.64-7.84 2.827-1.92 6.054-2.88 9.68-2.88 3.094 0 5.867.773 8.32 2.32 2.507 1.493 4.454 3.413 5.84 5.76V4.6h10.72V51c0 1.12.187 1.92.56 2.4.374.48 1.014.773 1.92.88V63c-1.866.373-3.386.56-4.56.56-1.92 0-3.52-.48-4.8-1.44-1.226-.96-1.92-2.213-2.08-3.76l-.16-2.64c-1.546 2.613-3.653 4.613-6.32 6-2.613 1.387-5.36 2.08-8.24 2.08s-5.546-.56-8-1.68a19.999 19.999 0 0 1-6.32-4.64c-1.76-1.973-3.146-4.267-4.16-6.88-.96-2.667-1.44-5.52-1.44-8.56Zm32.88 5.6v-10c-.533-1.547-1.386-2.933-2.56-4.16-1.173-1.227-2.48-2.187-3.92-2.88-1.44-.747-2.88-1.12-4.32-1.12-1.653 0-3.146.347-4.48 1.04a11.85 11.85 0 0 0-3.52 2.8c-.96 1.173-1.706 2.533-2.24 4.08a16.37 16.37 0 0 0-.72 4.88c0 1.707.267 3.333.8 4.88a11.98 11.98 0 0 0 2.48 3.92c1.067 1.12 2.294 2 3.68 2.64 1.44.64 2.987.96 4.64.96 1.014 0 2.027-.16 3.04-.48a13.815 13.815 0 0 0 2.96-1.44 11.1 11.1 0 0 0 2.48-2.24 9.901 9.901 0 0 0 1.68-2.88Z"/>
  <path fill="#3DA9FC" d="M40.46 82.969c0 1.419-.618 2.129-1.855 2.129-.351 0-1.132-.176-2.343-.528-1.211-.351-2.162-.527-2.852-.527-1.393 0-2.441.592-3.144 1.777-.547.925-.82 2.403-.82 4.434 0 2.018.299 3.483.898 4.394.768 1.172 1.998 1.758 3.691 1.758.807 0 1.765-.163 2.871-.488 1.12-.326 1.882-.488 2.285-.488a1.5 1.5 0 0 1 1.075.43c.312.273.468.768.468 1.484 0 .703-.722 1.38-2.168 2.031a11.102 11.102 0 0 1-4.53.957h-.45c-2.76 0-4.935-.82-6.523-2.46-1.589-1.641-2.39-3.875-2.403-6.7v-1.387c0-3.099.834-5.508 2.5-7.226 1.667-1.72 4.108-2.578 7.324-2.578h.43c1.146 0 2.227.234 3.242.703 1.537.703 2.305 1.464 2.305 2.285Zm11.934 13.75h.801c1.42 0 2.48-.547 3.184-1.64.703-1.095 1.055-2.566 1.055-4.415V89.63c0-1.888-.378-3.366-1.133-4.434-.742-1.08-1.778-1.62-3.106-1.62h-.586c-1.289 0-2.324.507-3.105 1.523-.768 1.002-1.152 2.448-1.152 4.336v1.25c0 1.823.351 3.287 1.054 4.394.716 1.094 1.712 1.64 2.989 1.64Zm9.825-7.598v1.367c0 1.38-.215 2.728-.645 4.043-.416 1.315-.99 2.377-1.718 3.184-.73.794-1.68 1.452-2.852 1.972-1.159.521-2.428.782-3.809.782H52.16c-2.643 0-4.785-.938-6.426-2.813-1.432-1.627-2.148-3.9-2.148-6.816v-1.367c0-1.459.221-2.806.664-4.043.456-1.237 1.061-2.253 1.816-3.047.769-.794 1.752-1.413 2.95-1.856 1.21-.442 2.532-.664 3.965-.664l.351.02c1.211 0 2.376.208 3.496.625 2.33.885 3.92 2.493 4.766 4.824.416 1.133.625 2.396.625 3.79Zm4.453-5.762c0-1.028.097-1.725.293-2.09.208-.364.736-.546 1.582-.546.86 0 1.484.143 1.875.43.078.051.26.247.547.585.3.326.527.489.683.489.17 0 .54-.157 1.114-.47 1.497-.833 2.753-1.25 3.77-1.25h1.015c.95 0 1.842.203 2.676.606 1.653.808 2.688 2.162 3.105 4.063.208.924.313 2.298.313 4.12l.156 4.923.176 3.887c0 .572-.124.97-.371 1.19-.235.222-.788.333-1.66.333-1.329 0-2.123-.52-2.383-1.563-.17-.664-.32-2.617-.45-5.859-.117-3.242-.325-5.254-.625-6.035-.99-1.25-2.057-2.005-3.203-2.266-1.575 0-2.682.56-3.32 1.68-.482.833-.723 2.487-.723 4.96l-.058 1.563-.04 2.11c0 2.526-.084 4.01-.253 4.453-.3.781-1.127 1.172-2.48 1.172-.834 0-1.362-.13-1.583-.39-.221-.274-.332-.717-.332-1.329l.02-.508v-1.543l.078-3.105v-3.653l.02-.507v-1.016l.038-2.52.02-.488V83.36Zm22.344 0c0-1.028.097-1.725.293-2.09.208-.364.735-.546 1.582-.546.859 0 1.484.143 1.875.43.078.051.26.247.546.585.3.326.528.489.684.489.17 0 .54-.157 1.113-.47 1.498-.833 2.754-1.25 3.77-1.25h1.015c.951 0 1.843.203 2.676.606 1.654.808 2.689 2.162 3.106 4.063.208.924.312 2.298.312 4.12l.157 4.923.175 3.887c0 .572-.123.97-.371 1.19-.234.222-.788.333-1.66.333-1.328 0-2.122-.52-2.383-1.563-.169-.664-.319-2.617-.449-5.859-.117-3.242-.325-5.254-.625-6.035-.99-1.25-2.057-2.005-3.203-2.266-1.576 0-2.682.56-3.32 1.68-.482.833-.723 2.487-.723 4.96l-.059 1.563-.039 2.11c0 2.526-.084 4.01-.254 4.453-.3.781-1.126 1.172-2.48 1.172-.833 0-1.36-.13-1.582-.39-.221-.274-.332-.717-.332-1.329l.02-.508v-1.543l.078-3.105v-3.653l.019-.507v-1.016l.04-2.52.019-.488V83.36Zm34.082 3.907v-.332c0-1.03-.345-1.843-1.036-2.442-.69-.599-1.516-.898-2.48-.898h-.488c-1.133 0-2.084.384-2.852 1.152-.768.768-1.152 1.706-1.152 2.813v.312c0 .352.423.527 1.269.527h.996l.118-.02 4.14-.194.43-.04c.703 0 1.055-.292 1.055-.878Zm-1.602 4.257c-4.206 0-6.308.443-6.308 1.329 0 1.12.41 2.005 1.23 2.656.82.65 1.855.976 3.105.976s2.455-.162 3.614-.488c1.159-.338 1.94-.508 2.343-.508.417 0 .762.17 1.036.508.286.326.429.82.429 1.485 0 .65-.716 1.315-2.148 1.992-1.419.677-2.884 1.015-4.395 1.015h-1.425c-1.12 0-2.305-.228-3.555-.683-2.448-.886-4.03-2.5-4.746-4.844a13.244 13.244 0 0 1-.606-3.945v-.938c0-4.766 1.68-7.865 5.039-9.297 1.25-.534 2.67-.8 4.258-.8 2.695 0 4.746.677 6.153 2.03.598.587 1.106 1.42 1.523 2.5.43 1.081.645 2.078.645 2.989v1.309c0 1.12-.404 1.855-1.211 2.207-.795.338-2.455.507-4.981.507Zm25.527-8.554c0 1.419-.618 2.129-1.855 2.129-.352 0-1.133-.176-2.344-.528-1.211-.351-2.161-.527-2.851-.527-1.394 0-2.442.592-3.145 1.777-.547.925-.82 2.403-.82 4.434 0 2.018.299 3.483.898 4.394.768 1.172 1.999 1.758 3.692 1.758.807 0 1.764-.163 2.871-.488 1.12-.326 1.881-.488 2.285-.488.417 0 .775.143 1.074.43.313.273.469.768.469 1.484 0 .703-.723 1.38-2.168 2.031a11.101 11.101 0 0 1-4.531.957h-.45c-2.76 0-4.934-.82-6.523-2.46-1.589-1.641-2.389-3.875-2.402-6.7v-1.387c0-3.099.833-5.508 2.5-7.226 1.666-1.72 4.108-2.578 7.324-2.578h.43c1.145 0 2.226.234 3.242.703 1.536.703 2.304 1.464 2.304 2.285Zm15.274 15.351c0 1.16-1.185 1.739-3.555 1.739s-4.043-.808-5.019-2.422c-.743-1.25-1.114-3.77-1.114-7.559v-.84l-.039-1.21-.019-.41-.02-1.231c0-.925-.065-1.517-.195-1.778-.117-.273-.508-.592-1.172-.957-.651-.364-.976-.84-.976-1.425v-.352c0-1.016.371-1.7 1.113-2.05.742-.365 1.178-.704 1.308-1.016.013-.04.118-.612.313-1.72.208-1.106.443-1.855.703-2.245.273-.39.872-.586 1.797-.586.937 0 1.53.286 1.777.86.091.208.235.891.43 2.05.195 1.159.417 1.888.664 2.188.247.286.84.52 1.777.703.938.182 1.524.364 1.758.547.248.182.371.625.371 1.328 0 .703-.293 1.184-.879 1.445-.234.104-.787.195-1.66.273-.872.065-1.465.274-1.777.625-.3.352-.449 1.576-.449 3.672l-.02.41c-.013.274-.019.547-.019.82l-.02.41v.84c0 2.644.176 4.226.527 4.747.365.52.996.833 1.895.937.898.104 1.536.306 1.914.606.391.3.586.833.586 1.601Z"/>
  <path fill="#094067" d="M100.512 118.33v-.469c0-1.666-.306-2.871-.918-3.613-.606-.749-1.537-1.123-2.793-1.123h-.723c-.547 0-.892.046-1.035.137-.143.084-.215.338-.215.761l-.02.264a8.024 8.024 0 0 0-.019.547v3.418c0 2.656.03 4.095.088 4.316.078.306.55.459 1.416.459l.137-.009c.8-.007 1.442-.095 1.923-.264.945-.339 1.56-1.055 1.846-2.149.209-.8.313-1.559.313-2.275Zm2.568-.576v.488c0 2.357-.531 4.082-1.592 5.176-1.061 1.094-2.754 1.641-5.078 1.641h-1.357c-1.628 0-2.507-.118-2.637-.352-.085-.156-.127-1.575-.127-4.258v-6.582l-.01-.224v-.44l-.01-.879v-.224c0-.489.166-.788.499-.899.22-.071 1.019-.107 2.392-.107h1.602c3.144 0 5.097 1.181 5.859 3.545.306.937.459 1.976.459 3.115Zm6.25 5.605h.4c.71 0 1.241-.273 1.592-.82.352-.547.528-1.282.528-2.207v-.518c0-.944-.189-1.682-.567-2.216-.371-.541-.888-.811-1.553-.811h-.292c-.645 0-1.163.254-1.553.762-.384.501-.576 1.224-.576 2.168v.625c0 .911.175 1.644.527 2.197.358.547.856.82 1.494.82Zm4.912-3.798v.683a6.47 6.47 0 0 1-.322 2.022c-.208.657-.495 1.188-.859 1.591-.365.398-.84.726-1.426.987a4.6 4.6 0 0 1-1.905.39h-.517c-1.322 0-2.393-.468-3.213-1.406-.716-.814-1.074-1.95-1.074-3.408v-.684c0-.729.11-1.403.332-2.021.228-.619.53-1.126.908-1.524.384-.397.876-.706 1.475-.927a5.714 5.714 0 0 1 1.982-.332l.176.009c.605 0 1.188.105 1.748.313 1.165.443 1.96 1.247 2.383 2.412.208.566.312 1.198.312 1.895Zm9.649-3.077c0 .71-.31 1.065-.928 1.065-.176 0-.567-.088-1.172-.264-.605-.176-1.081-.264-1.426-.264-.696 0-1.22.297-1.572.889-.273.462-.41 1.201-.41 2.217 0 1.009.15 1.741.449 2.197.384.586.999.879 1.846.879.403 0 .882-.081 1.435-.244.56-.163.941-.244 1.143-.244.208 0 .387.071.537.215.156.136.234.384.234.742 0 .351-.361.69-1.084 1.016a5.548 5.548 0 0 1-2.265.478h-.225c-1.38 0-2.467-.41-3.262-1.23-.794-.821-1.194-1.937-1.201-3.35v-.693c0-1.55.417-2.754 1.25-3.614.834-.859 2.054-1.289 3.662-1.289h.215c.573 0 1.113.117 1.621.352.769.351 1.153.732 1.153 1.142Zm7.636 7.676c0 .58-.592.869-1.777.869s-2.021-.403-2.51-1.211c-.371-.625-.556-1.884-.556-3.779v-.42l-.02-.605-.01-.205-.009-.616c0-.462-.033-.758-.098-.888-.059-.137-.254-.297-.586-.479-.326-.182-.488-.42-.488-.713v-.175c0-.508.185-.85.556-1.026.371-.182.589-.351.655-.508.006-.019.058-.306.156-.859.104-.553.221-.928.351-1.123.137-.195.437-.293.899-.293.469 0 .765.143.889.43.045.104.117.446.214 1.025.098.579.209.944.332 1.094.124.143.42.26.889.351.469.091.762.183.879.274.124.091.186.312.186.664 0 .351-.147.592-.44.722-.117.053-.394.098-.83.137-.436.033-.732.137-.889.313-.149.175-.224.787-.224 1.836l-.01.205c-.007.136-.01.273-.01.41l-.01.205v.42c0 1.321.088 2.112.264 2.373.182.26.498.417.947.469.45.052.769.153.957.302.196.15.293.417.293.801Zm5.928-.801h.4c.71 0 1.241-.273 1.592-.82.352-.547.528-1.282.528-2.207v-.518c0-.944-.189-1.682-.567-2.216-.371-.541-.888-.811-1.553-.811h-.293c-.644 0-1.162.254-1.552.762-.384.501-.576 1.224-.576 2.168v.625c0 .911.175 1.644.527 2.197.358.547.856.82 1.494.82Zm4.912-3.798v.683a6.47 6.47 0 0 1-.322 2.022c-.208.657-.495 1.188-.859 1.591-.365.398-.84.726-1.426.987a4.6 4.6 0 0 1-1.905.39h-.517c-1.322 0-2.393-.468-3.213-1.406-.716-.814-1.074-1.95-1.074-3.408v-.684c0-.729.11-1.403.332-2.021.228-.619.53-1.126.908-1.524.384-.397.876-.706 1.475-.927a5.714 5.714 0 0 1 1.982-.332l.176.009c.605 0 1.188.105 1.748.313 1.165.443 1.96 1.247 2.383 2.412.208.566.312 1.198.312 1.895Zm2.149-2.94v-.303c0-.377.078-.654.234-.83.163-.176.42-.263.771-.263h.147c.332 0 .674.117 1.025.351.111.072.225.186.342.342.117.15.199.225.244.225.052 0 .189-.082.41-.245a4.62 4.62 0 0 1 .772-.439c.286-.137.644-.205 1.074-.205.43 0 .746.091.947.273.202.183.303.358.303.528 0 .468-.15.843-.449 1.123-.13.123-.446.185-.947.185-.502 0-.905.072-1.211.215-.306.143-.55.404-.733.781-.182.371-.273 1.446-.273 3.223 0 1.771-.072 2.78-.215 3.027-.137.248-.534.371-1.191.371h-.166l-.166-.009c-.365 0-.596-.059-.694-.176-.097-.117-.146-.498-.146-1.143l.088-1.806.019-.498v-.85l-.01-.508v-.342l-.009-.498v-.332l-.02-.498c0-.273-.026-.599-.078-.976a8.424 8.424 0 0 1-.068-.723Z"/>
</svg>
