<svg width="278" height="145" viewBox="0 0 278 145" fill="none" xmlns="http://www.w3.org/2000/svg">
<path d="M231.963 100H222.037C213.761 100 207.054 93.2931 207.054 85.0175V74.8647C207.054 72.1518 204.855 69.9459 202.135 69.9459H191.983C183.707 69.9459 177 63.239 177 54.9633V45.0367C177 36.761 183.707 30.0541 191.983 30.0541H197.806C199.943 30.0541 201.676 31.7874 201.676 33.9248C201.676 36.0622 199.943 37.7954 197.806 37.7954H191.983C187.982 37.7954 184.734 41.0427 184.734 45.0435V54.9702C184.734 58.971 187.982 62.2183 191.983 62.2183H202.135C209.123 62.2183 214.795 67.8838 214.795 74.8784V85.0312C214.795 89.032 218.043 92.2792 222.043 92.2792H231.97C235.971 92.2792 239.218 89.032 239.218 85.0312V77.5228C239.218 71.1859 236.752 65.2257 232.272 60.7454L216.282 44.7489C210.342 38.8025 207.068 30.9036 207.068 22.4978V14.9825C207.068 6.70686 213.775 0 222.05 0H231.977C240.253 0 246.96 6.70686 246.96 14.9825V25.1353C246.96 27.8482 249.159 30.0541 251.878 30.0541H262.031C270.307 30.0541 277.014 36.761 277.014 45.0367V54.9633C277.014 63.239 270.307 69.9459 262.031 69.9459H256.215C254.077 69.9459 252.344 68.2126 252.344 66.0752C252.344 63.9378 254.077 62.2046 256.215 62.2046H262.031C266.032 62.2046 269.279 58.9573 269.279 54.9565V45.0298C269.279 41.029 266.032 37.7817 262.031 37.7817H251.865C244.877 37.7817 239.211 32.1162 239.211 25.1285V14.9825C239.211 10.9817 235.964 7.73447 231.963 7.73447H222.037C218.036 7.73447 214.789 10.9749 214.789 14.9825V22.4909C214.789 28.8278 217.255 34.788 221.735 39.2683L237.725 55.2579C243.671 61.1975 246.939 69.1032 246.939 77.5091V85.0175C246.946 93.2863 240.239 100 231.963 100Z" fill="#3DA9FC"/>
<path d="M52.24 63V25.72L37.68 53.48H31.52L16.96 25.72V63H5.92V6.2H17.76L34.56 38.52L51.52 6.2H63.28V63H52.24ZM92.8356 63.8C89.4756 63.8 86.4356 63.24 83.7156 62.12C80.9956 60.9467 78.6756 59.3733 76.7556 57.4C74.8356 55.3733 73.3423 53.08 72.2756 50.52C71.2623 47.9067 70.7556 45.16 70.7556 42.28C70.7556 38.28 71.6356 34.6267 73.3956 31.32C75.209 28.0133 77.769 25.3733 81.0756 23.4C84.4356 21.3733 88.3823 20.36 92.9156 20.36C97.5023 20.36 101.422 21.3733 104.676 23.4C107.929 25.3733 110.409 28.0133 112.116 31.32C113.876 34.5733 114.756 38.0933 114.756 41.88C114.756 42.52 114.729 43.1867 114.676 43.88C114.622 44.52 114.569 45.0533 114.516 45.48H82.1156C82.329 47.6133 82.9423 49.48 83.9556 51.08C85.0223 52.68 86.3556 53.9067 87.9556 54.76C89.609 55.56 91.369 55.96 93.2356 55.96C95.369 55.96 97.369 55.4533 99.2356 54.44C101.156 53.3733 102.462 51.9867 103.156 50.28L112.356 52.84C111.342 54.9733 109.876 56.8667 107.956 58.52C106.089 60.1733 103.876 61.48 101.316 62.44C98.7556 63.3467 95.929 63.8 92.8356 63.8ZM81.8756 38.68H103.796C103.582 36.5467 102.969 34.7067 101.956 33.16C100.996 31.56 99.7156 30.3333 98.1156 29.48C96.5156 28.5733 94.729 28.12 92.7556 28.12C90.8356 28.12 89.0756 28.5733 87.4756 29.48C85.929 30.3333 84.649 31.56 83.6356 33.16C82.6756 34.7067 82.089 36.5467 81.8756 38.68ZM118.726 42.04C118.726 37.9867 119.526 34.3333 121.126 31.08C122.726 27.7733 124.94 25.16 127.766 23.24C130.593 21.32 133.82 20.36 137.446 20.36C140.54 20.36 143.313 21.1333 145.766 22.68C148.273 24.1733 150.22 26.0933 151.606 28.44V4.6H162.326V51C162.326 52.12 162.513 52.92 162.886 53.4C163.26 53.88 163.9 54.1733 164.806 54.28V63C162.94 63.3733 161.42 63.56 160.246 63.56C158.326 63.56 156.726 63.08 155.446 62.12C154.22 61.16 153.526 59.9067 153.366 58.36L153.206 55.72C151.66 58.3333 149.553 60.3333 146.886 61.72C144.273 63.1067 141.526 63.8 138.646 63.8C135.766 63.8 133.1 63.24 130.646 62.12C128.246 61 126.14 59.4533 124.326 57.48C122.566 55.5067 121.18 53.2133 120.166 50.6C119.206 47.9333 118.726 45.08 118.726 42.04ZM151.606 47.64V37.64C151.073 36.0933 150.22 34.7067 149.046 33.48C147.873 32.2533 146.566 31.2933 145.126 30.6C143.686 29.8533 142.246 29.48 140.806 29.48C139.153 29.48 137.66 29.8267 136.326 30.52C134.993 31.2133 133.82 32.1467 132.806 33.32C131.846 34.4933 131.1 35.8533 130.566 37.4C130.086 38.9467 129.846 40.5733 129.846 42.28C129.846 43.9867 130.113 45.6133 130.646 47.16C131.233 48.6533 132.06 49.96 133.126 51.08C134.193 52.2 135.42 53.08 136.806 53.72C138.246 54.36 139.793 54.68 141.446 54.68C142.46 54.68 143.473 54.52 144.486 54.2C145.553 53.8267 146.54 53.3467 147.446 52.76C148.406 52.12 149.233 51.3733 149.926 50.52C150.673 49.6133 151.233 48.6533 151.606 47.64Z" fill="#094067"/>
<path d="M40.4609 82.9688C40.4609 84.388 39.8424 85.0977 38.6055 85.0977C38.2539 85.0977 37.4727 84.9219 36.2617 84.5703C35.0508 84.2188 34.1003 84.043 33.4102 84.043C32.0169 84.043 30.9688 84.6354 30.2656 85.8203C29.7188 86.7448 29.4453 88.2227 29.4453 90.2539C29.4453 92.2721 29.7448 93.737 30.3438 94.6484C31.112 95.8203 32.3424 96.4062 34.0352 96.4062C34.8424 96.4062 35.7995 96.2435 36.9062 95.918C38.026 95.5924 38.7878 95.4297 39.1914 95.4297C39.6081 95.4297 39.9661 95.5729 40.2656 95.8594C40.5781 96.1328 40.7344 96.6276 40.7344 97.3438C40.7344 98.0469 40.0117 98.724 38.5664 99.375C37.1211 100.013 35.6107 100.332 34.0352 100.332H33.5859C30.8255 100.332 28.651 99.5117 27.0625 97.8711C25.474 96.2305 24.6732 93.9974 24.6602 91.1719V89.7852C24.6602 86.6862 25.4935 84.2773 27.1602 82.5586C28.8268 80.8398 31.2682 79.9805 34.4844 79.9805H34.9141C36.0599 79.9805 37.1406 80.2148 38.1562 80.6836C39.6927 81.3867 40.4609 82.1484 40.4609 82.9688ZM52.3945 96.7188H53.1953C54.6146 96.7188 55.6758 96.1719 56.3789 95.0781C57.082 93.9844 57.4336 92.513 57.4336 90.6641V89.6289C57.4336 87.7409 57.056 86.263 56.3008 85.1953C55.5586 84.1146 54.5234 83.5742 53.1953 83.5742H52.6094C51.3203 83.5742 50.2852 84.082 49.5039 85.0977C48.7357 86.1003 48.3516 87.5456 48.3516 89.4336V90.6836C48.3516 92.5065 48.7031 93.9714 49.4062 95.0781C50.1224 96.1719 51.1185 96.7188 52.3945 96.7188ZM62.2188 89.1211V90.4883C62.2188 91.8685 62.0039 93.2161 61.5742 94.5312C61.1576 95.8464 60.5846 96.9076 59.8555 97.7148C59.1263 98.5091 58.1758 99.1667 57.0039 99.6875C55.8451 100.208 54.5755 100.469 53.1953 100.469H52.1602C49.5169 100.469 47.375 99.5312 45.7344 97.6562C44.3021 96.0286 43.5859 93.7565 43.5859 90.8398V89.4727C43.5859 88.0143 43.8073 86.6667 44.25 85.4297C44.7057 84.1927 45.3112 83.1771 46.0664 82.3828C46.8346 81.5885 47.8177 80.9701 49.0156 80.5273C50.2266 80.0846 51.5482 79.8633 52.9805 79.8633L53.332 79.8828C54.543 79.8828 55.7083 80.0911 56.8281 80.5078C59.1589 81.3932 60.7474 83.0013 61.5938 85.332C62.0104 86.4648 62.2188 87.7279 62.2188 89.1211ZM66.6719 83.3594C66.6719 82.3307 66.7695 81.6341 66.9648 81.2695C67.1732 80.9049 67.7005 80.7227 68.5469 80.7227C69.4062 80.7227 70.0312 80.8659 70.4219 81.1523C70.5 81.2044 70.6823 81.3997 70.9688 81.7383C71.2682 82.0638 71.4961 82.2266 71.6523 82.2266C71.8216 82.2266 72.1927 82.0703 72.7656 81.7578C74.263 80.9245 75.5195 80.5078 76.5352 80.5078H77.5508C78.5013 80.5078 79.3932 80.7096 80.2266 81.1133C81.8802 81.9206 82.9154 83.2747 83.332 85.1758C83.5404 86.1003 83.6445 87.474 83.6445 89.2969L83.8008 94.2188L83.9766 98.1055C83.9766 98.6784 83.8529 99.0755 83.6055 99.2969C83.3711 99.5182 82.8177 99.6289 81.9453 99.6289C80.6172 99.6289 79.8229 99.1081 79.5625 98.0664C79.3932 97.4023 79.2435 95.4492 79.1133 92.207C78.9961 88.9648 78.7878 86.9531 78.4883 86.1719C77.4987 84.9219 76.431 84.1667 75.2852 83.9062C73.7096 83.9062 72.6029 84.4661 71.9648 85.5859C71.4831 86.4193 71.2422 88.0729 71.2422 90.5469L71.1836 92.1094L71.1445 94.2188C71.1445 96.7448 71.0599 98.2292 70.8906 98.6719C70.5911 99.4531 69.7643 99.8438 68.4102 99.8438C67.5768 99.8438 67.0495 99.7135 66.8281 99.4531C66.6068 99.1797 66.4961 98.737 66.4961 98.125L66.5156 97.6172C66.5156 97.0964 66.5156 96.582 66.5156 96.0742L66.5938 92.9688V89.3164L66.6133 88.8086C66.6133 88.4701 66.6133 88.1315 66.6133 87.793L66.6523 85.2734L66.6719 84.7852V83.3594ZM89.0156 83.3594C89.0156 82.3307 89.1133 81.6341 89.3086 81.2695C89.5169 80.9049 90.0443 80.7227 90.8906 80.7227C91.75 80.7227 92.375 80.8659 92.7656 81.1523C92.8438 81.2044 93.026 81.3997 93.3125 81.7383C93.612 82.0638 93.8398 82.2266 93.9961 82.2266C94.1654 82.2266 94.5365 82.0703 95.1094 81.7578C96.6068 80.9245 97.8633 80.5078 98.8789 80.5078H99.8945C100.845 80.5078 101.737 80.7096 102.57 81.1133C104.224 81.9206 105.259 83.2747 105.676 85.1758C105.884 86.1003 105.988 87.474 105.988 89.2969L106.145 94.2188L106.32 98.1055C106.32 98.6784 106.197 99.0755 105.949 99.2969C105.715 99.5182 105.161 99.6289 104.289 99.6289C102.961 99.6289 102.167 99.1081 101.906 98.0664C101.737 97.4023 101.587 95.4492 101.457 92.207C101.34 88.9648 101.132 86.9531 100.832 86.1719C99.8424 84.9219 98.7747 84.1667 97.6289 83.9062C96.0534 83.9062 94.9466 84.4661 94.3086 85.5859C93.8268 86.4193 93.5859 88.0729 93.5859 90.5469L93.5273 92.1094L93.4883 94.2188C93.4883 96.7448 93.4036 98.2292 93.2344 98.6719C92.9349 99.4531 92.1081 99.8438 90.7539 99.8438C89.9206 99.8438 89.3932 99.7135 89.1719 99.4531C88.9505 99.1797 88.8398 98.737 88.8398 98.125L88.8594 97.6172C88.8594 97.0964 88.8594 96.582 88.8594 96.0742L88.9375 92.9688V89.3164L88.957 88.8086C88.957 88.4701 88.957 88.1315 88.957 87.793L88.9961 85.2734L89.0156 84.7852V83.3594ZM123.098 87.2656V86.9336C123.098 85.9049 122.753 85.0911 122.062 84.4922C121.372 83.8932 120.546 83.5938 119.582 83.5938H119.094C117.961 83.5938 117.01 83.9779 116.242 84.7461C115.474 85.5143 115.09 86.4518 115.09 87.5586V87.8711C115.09 88.2227 115.513 88.3984 116.359 88.3984H117.355L117.473 88.3789L121.613 88.1836L122.043 88.1445C122.746 88.1445 123.098 87.8516 123.098 87.2656ZM121.496 91.5234C117.29 91.5234 115.188 91.9661 115.188 92.8516C115.188 93.9714 115.598 94.8568 116.418 95.5078C117.238 96.1589 118.273 96.4844 119.523 96.4844C120.773 96.4844 121.978 96.3216 123.137 95.9961C124.296 95.6576 125.077 95.4883 125.48 95.4883C125.897 95.4883 126.242 95.6576 126.516 95.9961C126.802 96.3216 126.945 96.8164 126.945 97.4805C126.945 98.1315 126.229 98.7956 124.797 99.4727C123.378 100.15 121.913 100.488 120.402 100.488H118.977C117.857 100.488 116.672 100.26 115.422 99.8047C112.974 98.9193 111.392 97.3047 110.676 94.9609C110.272 93.6589 110.07 92.3438 110.07 91.0156V90.0781C110.07 85.3125 111.75 82.2135 115.109 80.7812C116.359 80.2474 117.779 79.9805 119.367 79.9805C122.062 79.9805 124.113 80.6576 125.52 82.0117C126.118 82.5977 126.626 83.431 127.043 84.5117C127.473 85.5924 127.688 86.5885 127.688 87.5V88.8086C127.688 89.9284 127.284 90.6641 126.477 91.0156C125.682 91.3542 124.022 91.5234 121.496 91.5234ZM147.023 82.9688C147.023 84.388 146.405 85.0977 145.168 85.0977C144.816 85.0977 144.035 84.9219 142.824 84.5703C141.613 84.2188 140.663 84.043 139.973 84.043C138.579 84.043 137.531 84.6354 136.828 85.8203C136.281 86.7448 136.008 88.2227 136.008 90.2539C136.008 92.2721 136.307 93.737 136.906 94.6484C137.674 95.8203 138.905 96.4062 140.598 96.4062C141.405 96.4062 142.362 96.2435 143.469 95.918C144.589 95.5924 145.35 95.4297 145.754 95.4297C146.171 95.4297 146.529 95.5729 146.828 95.8594C147.141 96.1328 147.297 96.6276 147.297 97.3438C147.297 98.0469 146.574 98.724 145.129 99.375C143.684 100.013 142.173 100.332 140.598 100.332H140.148C137.388 100.332 135.214 99.5117 133.625 97.8711C132.036 96.2305 131.236 93.9974 131.223 91.1719V89.7852C131.223 86.6862 132.056 84.2773 133.723 82.5586C135.389 80.8398 137.831 79.9805 141.047 79.9805H141.477C142.622 79.9805 143.703 80.2148 144.719 80.6836C146.255 81.3867 147.023 82.1484 147.023 82.9688ZM162.297 98.3203C162.297 99.4792 161.112 100.059 158.742 100.059C156.372 100.059 154.699 99.2513 153.723 97.6367C152.98 96.3867 152.609 93.8672 152.609 90.0781V89.2383L152.57 88.0273L152.551 87.6172L152.531 86.3867C152.531 85.4622 152.466 84.8698 152.336 84.6094C152.219 84.3359 151.828 84.0169 151.164 83.6523C150.513 83.2878 150.188 82.8125 150.188 82.2266V81.875C150.188 80.8594 150.559 80.1758 151.301 79.8242C152.043 79.4596 152.479 79.1211 152.609 78.8086C152.622 78.7695 152.727 78.1966 152.922 77.0898C153.13 75.9831 153.365 75.2344 153.625 74.8438C153.898 74.4531 154.497 74.2578 155.422 74.2578C156.359 74.2578 156.952 74.5443 157.199 75.1172C157.29 75.3255 157.434 76.0091 157.629 77.168C157.824 78.3268 158.046 79.056 158.293 79.3555C158.54 79.6419 159.133 79.8763 160.07 80.0586C161.008 80.2409 161.594 80.4232 161.828 80.6055C162.076 80.7878 162.199 81.2305 162.199 81.9336C162.199 82.6367 161.906 83.1185 161.32 83.3789C161.086 83.4831 160.533 83.5742 159.66 83.6523C158.788 83.7174 158.195 83.9258 157.883 84.2773C157.583 84.6289 157.434 85.8529 157.434 87.9492L157.414 88.3594C157.401 88.6328 157.395 88.9062 157.395 89.1797L157.375 89.5898V90.4297C157.375 93.0729 157.551 94.6549 157.902 95.1758C158.267 95.6966 158.898 96.0091 159.797 96.1133C160.695 96.2174 161.333 96.4193 161.711 96.7188C162.102 97.0182 162.297 97.5521 162.297 98.3203Z" fill="#3DA9FC"/>
<path d="M99.0723 116.895C99.0918 117.07 99.1016 117.249 99.1016 117.432C99.1016 117.607 99.1667 117.728 99.2969 117.793C99.4271 117.858 99.6582 117.891 99.9902 117.891H100.938C102.819 117.891 103.76 117.148 103.76 115.664V115.283C103.76 114.6 103.545 114.062 103.115 113.672C102.686 113.281 102.048 113.086 101.201 113.086H100.42L100.342 113.096H100.176C100.072 113.109 99.9902 113.115 99.9316 113.115C99.5345 113.115 99.2936 113.216 99.209 113.418C99.1309 113.613 99.0918 114.372 99.0918 115.693L99.082 115.869V116.299L99.0723 116.641V116.895ZM101.621 111.133C102.311 111.133 102.965 111.23 103.584 111.426C104.202 111.615 104.701 111.875 105.078 112.207C105.462 112.539 105.755 112.969 105.957 113.496C106.165 114.023 106.27 114.561 106.27 115.107V115.586C106.27 117.083 105.716 118.229 104.609 119.023C104.049 119.427 103.18 119.691 102.002 119.814C100.244 120.01 99.3197 120.166 99.2285 120.283C98.9941 120.589 98.877 121.325 98.877 122.49C98.877 123.649 98.7988 124.352 98.6426 124.6C98.4863 124.847 98.1348 124.971 97.5879 124.971C97.0475 124.971 96.7155 124.928 96.5918 124.844C96.4746 124.753 96.416 124.46 96.416 123.965V123.76L96.4453 122.91L96.4648 122.48C96.4779 122.188 96.4844 121.969 96.4844 121.826L96.5137 120.947L96.5332 120.508L96.5625 118.965V118.525L96.5723 118.076C96.5723 117.855 96.5723 117.633 96.5723 117.412L96.5918 116.553V116.113C96.5918 113.216 96.6504 111.67 96.7676 111.475C96.8913 111.279 97.5488 111.182 98.7402 111.182L100.938 111.133H101.621ZM109.805 122.129C109.805 122.461 109.971 122.738 110.303 122.959C110.635 123.18 110.993 123.291 111.377 123.291H111.66C112.318 123.291 112.832 123.053 113.203 122.578C113.366 122.37 113.447 121.947 113.447 121.309L113.457 121.191V120.947C113.457 120.537 113.239 120.332 112.803 120.332H112.012C111.296 120.332 110.745 120.452 110.361 120.693C109.977 120.934 109.785 121.227 109.785 121.572V121.934C109.798 122.025 109.805 122.09 109.805 122.129ZM113.35 118.203C113.35 117.246 112.747 116.768 111.543 116.768C111.1 116.768 110.547 116.852 109.883 117.021C109.225 117.191 108.809 117.275 108.633 117.275C108.457 117.275 108.294 117.188 108.145 117.012C108.001 116.836 107.93 116.615 107.93 116.348C107.93 115.911 108.19 115.57 108.711 115.322C109.44 114.977 110.319 114.805 111.348 114.805H111.592C113.265 114.805 114.456 115.28 115.166 116.23C115.439 116.595 115.618 117.031 115.703 117.539C115.788 118.04 115.83 118.916 115.83 120.166C115.83 121.41 115.872 122.282 115.957 122.783C116.042 123.285 116.084 123.704 116.084 124.043C116.084 124.375 116.019 124.619 115.889 124.775C115.758 124.925 115.479 125 115.049 125C114.619 125 114.323 124.958 114.16 124.873C113.997 124.788 113.844 124.681 113.701 124.551C113.564 124.421 113.454 124.355 113.369 124.355C113.285 124.355 112.91 124.489 112.246 124.756C111.582 125.016 111.009 125.146 110.527 125.146H110.293C109.355 125.146 108.62 124.863 108.086 124.297C107.552 123.724 107.285 123.034 107.285 122.227V121.748C107.285 121.364 107.389 120.977 107.598 120.586C108.171 119.505 109.587 118.919 111.846 118.828C112.627 118.796 113.073 118.75 113.184 118.691C113.294 118.626 113.35 118.464 113.35 118.203ZM123.945 124.16C123.945 124.74 123.353 125.029 122.168 125.029C120.983 125.029 120.146 124.626 119.658 123.818C119.287 123.193 119.102 121.934 119.102 120.039V119.619L119.082 119.014L119.072 118.809L119.062 118.193C119.062 117.731 119.03 117.435 118.965 117.305C118.906 117.168 118.711 117.008 118.379 116.826C118.053 116.644 117.891 116.406 117.891 116.113V115.938C117.891 115.43 118.076 115.088 118.447 114.912C118.818 114.73 119.036 114.561 119.102 114.404C119.108 114.385 119.16 114.098 119.258 113.545C119.362 112.992 119.479 112.617 119.609 112.422C119.746 112.227 120.046 112.129 120.508 112.129C120.977 112.129 121.273 112.272 121.396 112.559C121.442 112.663 121.514 113.005 121.611 113.584C121.709 114.163 121.82 114.528 121.943 114.678C122.067 114.821 122.363 114.938 122.832 115.029C123.301 115.12 123.594 115.212 123.711 115.303C123.835 115.394 123.896 115.615 123.896 115.967C123.896 116.318 123.75 116.559 123.457 116.689C123.34 116.742 123.063 116.787 122.627 116.826C122.191 116.859 121.895 116.963 121.738 117.139C121.589 117.314 121.514 117.926 121.514 118.975L121.504 119.18C121.497 119.316 121.494 119.453 121.494 119.59L121.484 119.795V120.215C121.484 121.536 121.572 122.327 121.748 122.588C121.93 122.848 122.246 123.005 122.695 123.057C123.145 123.109 123.464 123.21 123.652 123.359C123.848 123.509 123.945 123.776 123.945 124.16ZM126.182 112.119C126.201 112.041 126.211 111.927 126.211 111.777C126.211 111.628 126.289 111.475 126.445 111.318C126.608 111.156 126.846 111.074 127.158 111.074L127.422 111.045H127.646L127.695 111.055L127.998 111.084C128.024 111.09 128.053 111.094 128.086 111.094C128.555 111.094 128.789 111.354 128.789 111.875L128.818 112.148V112.373L128.799 112.559L128.77 112.773C128.77 113.294 128.34 113.555 127.48 113.555H127.393L127.344 113.545L127.002 113.516C126.969 113.509 126.94 113.506 126.914 113.506C126.452 113.506 126.221 113.271 126.221 112.803C126.208 112.738 126.201 112.692 126.201 112.666L126.182 112.49V112.119ZM127.48 125.039H127.227C126.751 125.039 126.462 124.974 126.357 124.844C126.188 124.629 126.104 124.251 126.104 123.711C126.104 123.171 126.13 122.689 126.182 122.266C126.24 121.842 126.27 121.595 126.27 121.523L126.279 121.27C126.279 121.185 126.279 121.1 126.279 121.016L126.289 120.762V119.463L126.299 119.072V118.555L126.289 118.164C126.289 118.079 126.289 117.995 126.289 117.91L126.279 117.656L126.025 116.094V115.859C126.025 115.547 126.09 115.352 126.221 115.273C126.357 115.195 126.634 115.156 127.051 115.156H127.432C128.044 115.156 128.405 115.326 128.516 115.664C128.574 115.84 128.604 116.696 128.604 118.232C128.604 119.769 128.613 120.658 128.633 120.898C128.652 121.133 128.708 121.514 128.799 122.041C128.896 122.562 128.945 122.92 128.945 123.115L128.965 123.359V123.721C128.965 124.32 128.874 124.691 128.691 124.834C128.509 124.971 128.105 125.039 127.48 125.039ZM137.568 118.633V118.467C137.568 117.952 137.396 117.546 137.051 117.246C136.706 116.947 136.292 116.797 135.811 116.797H135.566C135 116.797 134.525 116.989 134.141 117.373C133.757 117.757 133.564 118.226 133.564 118.779V118.936C133.564 119.111 133.776 119.199 134.199 119.199H134.697L134.756 119.189L136.826 119.092L137.041 119.072C137.393 119.072 137.568 118.926 137.568 118.633ZM136.768 120.762C134.665 120.762 133.613 120.983 133.613 121.426C133.613 121.986 133.818 122.428 134.229 122.754C134.639 123.079 135.156 123.242 135.781 123.242C136.406 123.242 137.008 123.161 137.588 122.998C138.167 122.829 138.558 122.744 138.76 122.744C138.968 122.744 139.141 122.829 139.277 122.998C139.421 123.161 139.492 123.408 139.492 123.74C139.492 124.066 139.134 124.398 138.418 124.736C137.708 125.075 136.976 125.244 136.221 125.244H135.508C134.948 125.244 134.355 125.13 133.73 124.902C132.507 124.46 131.715 123.652 131.357 122.48C131.156 121.829 131.055 121.172 131.055 120.508V120.039C131.055 117.656 131.895 116.107 133.574 115.391C134.199 115.124 134.909 114.99 135.703 114.99C137.051 114.99 138.076 115.329 138.779 116.006C139.079 116.299 139.333 116.715 139.541 117.256C139.756 117.796 139.863 118.294 139.863 118.75V119.404C139.863 119.964 139.661 120.332 139.258 120.508C138.861 120.677 138.031 120.762 136.768 120.762ZM142.109 116.68C142.109 116.165 142.158 115.817 142.256 115.635C142.36 115.452 142.624 115.361 143.047 115.361C143.477 115.361 143.789 115.433 143.984 115.576C144.023 115.602 144.115 115.7 144.258 115.869C144.408 116.032 144.521 116.113 144.6 116.113C144.684 116.113 144.87 116.035 145.156 115.879C145.905 115.462 146.533 115.254 147.041 115.254H147.549C148.024 115.254 148.47 115.355 148.887 115.557C149.714 115.96 150.231 116.637 150.439 117.588C150.544 118.05 150.596 118.737 150.596 119.648L150.674 122.109L150.762 124.053C150.762 124.339 150.7 124.538 150.576 124.648C150.459 124.759 150.182 124.814 149.746 124.814C149.082 124.814 148.685 124.554 148.555 124.033C148.47 123.701 148.395 122.725 148.33 121.104C148.271 119.482 148.167 118.477 148.018 118.086C147.523 117.461 146.989 117.083 146.416 116.953C145.628 116.953 145.075 117.233 144.756 117.793C144.515 118.21 144.395 119.036 144.395 120.273L144.365 121.055L144.346 122.109C144.346 123.372 144.303 124.115 144.219 124.336C144.069 124.727 143.656 124.922 142.979 124.922C142.562 124.922 142.298 124.857 142.188 124.727C142.077 124.59 142.021 124.368 142.021 124.062L142.031 123.809C142.031 123.548 142.031 123.291 142.031 123.037L142.07 121.484V119.658L142.08 119.404C142.08 119.235 142.08 119.066 142.08 118.896L142.1 117.637L142.109 117.393V116.68ZM158.594 124.16C158.594 124.74 158.001 125.029 156.816 125.029C155.632 125.029 154.795 124.626 154.307 123.818C153.936 123.193 153.75 121.934 153.75 120.039V119.619L153.73 119.014L153.721 118.809L153.711 118.193C153.711 117.731 153.678 117.435 153.613 117.305C153.555 117.168 153.359 117.008 153.027 116.826C152.702 116.644 152.539 116.406 152.539 116.113V115.938C152.539 115.43 152.725 115.088 153.096 114.912C153.467 114.73 153.685 114.561 153.75 114.404C153.757 114.385 153.809 114.098 153.906 113.545C154.01 112.992 154.128 112.617 154.258 112.422C154.395 112.227 154.694 112.129 155.156 112.129C155.625 112.129 155.921 112.272 156.045 112.559C156.09 112.663 156.162 113.005 156.26 113.584C156.357 114.163 156.468 114.528 156.592 114.678C156.715 114.821 157.012 114.938 157.48 115.029C157.949 115.12 158.242 115.212 158.359 115.303C158.483 115.394 158.545 115.615 158.545 115.967C158.545 116.318 158.398 116.559 158.105 116.689C157.988 116.742 157.712 116.787 157.275 116.826C156.839 116.859 156.543 116.963 156.387 117.139C156.237 117.314 156.162 117.926 156.162 118.975L156.152 119.18C156.146 119.316 156.143 119.453 156.143 119.59L156.133 119.795V120.215C156.133 121.536 156.221 122.327 156.396 122.588C156.579 122.848 156.895 123.005 157.344 123.057C157.793 123.109 158.112 123.21 158.301 123.359C158.496 123.509 158.594 123.776 158.594 124.16Z" fill="#094067"/>
</svg>
